# xmcd
#
# Track frame offsets:
#	150
#	12030
#	26202
#	42510
#	57417
#	66805
#	79715
#	92410
#	104270
#	121247
#	135610
#	147212
#	162337
#	179742
#	190330
#	204197
#
# Disc length: 3094 seconds
#
# Revision: 0
# Processed by: cddbd v1.5.2PL0 Copyright (c) Steve Scherf et al.
# Submitted via: audiograbber 1.83.01
#
DISCID=db0c1410
DTITLE=TOP HITS - THMF 03
DYEAR=1900
DGENRE=
TTITLE0=Conway Twitty  - Hello Darlin'
TTITLE1=Loretta Lynn  - Coal Miner's Daughter 
TTITLE2=Conway Twitty  - I'd Love To Lay You Down 
TTITLE3=Conway Twitty  - You've Never Been This Far Before
TTITLE4=Loretta Lynn  - Don't Come Home A Drinking 
TTITLE5=Conway Twitty  - Tight Fitting Jeans
TTITLE6=Conway Twitty  - Lying Here With Linda On My Mind  
TTITLE7=Loretta Lynn  - Love Is The Foundation
TTITLE8=Conway Twitty  - Crazy In Love  
TTITLE9=Conway Twitty  - Slow Hand 
TTITLE10=Loretta Lynn  - Out Of My Head And Back In My Bed  
TTITLE11=Conway Twitty  - I Wish I Was Still In Your Dreams 
TTITLE12=Conway Twitty  - Who Did They Think He Was  
TTITLE13=Loretta Lynn  - Red White And Blue
TTITLE14=Loretta Lynn  - Somebody Somewhere 
TTITLE15=Conway Twitty  - Fifteen Years Ago
EXTD=
EXTT0=
EXTT1=
EXTT2=
EXTT3=
EXTT4=
EXTT5=
EXTT6=
EXTT7=
EXTT8=
EXTT9=
EXTT10=
EXTT11=
EXTT12=
EXTT13=
EXTT14=
EXTT15=
PLAYORDER=
